<?xml version="1.0" encoding="UTF-8" standalone="no"?>
<!-- Created with Inkscape (http://www.inkscape.org/) -->

<svg
   width="46.070999mm"
   height="22.409159mm"
   viewBox="0 0 46.070999 22.409159"
   version="1.1"
   id="svg484"
   sodipodi:docname="lts_logo.svg"
   inkscape:version="1.2.2 (b0a8486541, 2022-12-01)"
   xmlns:inkscape="http://www.inkscape.org/namespaces/inkscape"
   xmlns:sodipodi="http://sodipodi.sourceforge.net/DTD/sodipodi-0.dtd"
   xmlns="http://www.w3.org/2000/svg"
   xmlns:svg="http://www.w3.org/2000/svg">
  <sodipodi:namedview
     id="namedview486"
     pagecolor="#ffffff"
     bordercolor="#000000"
     borderopacity="0.25"
     inkscape:showpageshadow="2"
     inkscape:pageopacity="0.0"
     inkscape:pagecheckerboard="0"
     inkscape:deskcolor="#d1d1d1"
     inkscape:document-units="mm"
     showgrid="false"
     inkscape:zoom="3.659624"
     inkscape:cx="96.32137"
     inkscape:cy="8.4708155"
     inkscape:window-width="2560"
     inkscape:window-height="1371"
     inkscape:window-x="0"
     inkscape:window-y="32"
     inkscape:window-maximized="1"
     inkscape:current-layer="g14799" />
  <defs
     id="defs481" />
  <g
     inkscape:label="Layer 1"
     inkscape:groupmode="layer"
     id="layer1"
     transform="translate(-72.324297,-65.301736)">
    <g
       id="g14799"
       style="display:inline;stroke:none;stroke-opacity:1"
       transform="matrix(0.20385027,0,-0.05663436,0.16426937,89.903833,25.631315)"
       inkscape:label="LOGO 2"
       inkscape:groupmode="layer">
      <path
         style="baseline-shift:baseline;display:none;overflow:visible;opacity:1;stroke:#72e700;stroke-width:1.00153;stroke-linecap:square;stroke-dasharray:none;stroke-opacity:1;enable-background:accumulate;stop-color:#000000;stop-opacity:1"
         d="m 176.53711,264.61133 c -4.18609,0 -11.45152,-0.23378 -19.77734,3.84027 -8.32583,4.07405 -16.27425,15.76902 -15.7168,27.94025 0.46702,10.19721 5.21938,21.05791 13.64453,25.94089 7.3475,4.25841 13.53319,4.27865 18.99023,4.32544 0.0483,0.51648 0.11215,0.60455 0.13868,1.22075 -6.84288,0.10142 -22.89209,0.024 -22.89209,0.024 l -20.34157,4.03896 4.28639,26.29907 15.24219,0.16238 c 0,0 19.13693,0.24686 26.92383,-0.008 16.18893,-0.52948 27.91937,-15.07169 27.24804,-31.69053 -0.22114,-5.47449 0.52925,-11.46394 -4.41211,-19.32068 -2.47068,-3.92837 -6.80405,-7.3529 -10.97461,-8.99715 -4.17055,-1.64424 -8.04722,-2.05191 -12.01171,-2.14217 -2.5148,-0.0573 -4.20913,-0.29159 -5.44532,-0.45974 -4.8e-4,-0.0743 0.0133,-0.0616 0.0117,-0.14672 1.20273,-0.22214 3.00175,-0.493 5.08594,-0.493 h 24.11133 15.24218 v -30.53434 h -15.24218 z"
         id="path3-1-7"
         sodipodi:nodetypes="cssscccccccssssccsccccc"
         inkscape:label="Big S" />
      <path
         id="text19583-6"
         style="font-style:italic;font-weight:bold;font-size:192px;font-family:'Liberation Sans';-inkscape-font-specification:'Liberation Sans, Bold Italic';white-space:pre;shape-inside:url(#rect19585);fill:#000000;fill-rule:evenodd;stroke:#66ff55;stroke-width:1.64666;stroke-dasharray:none;stroke-opacity:1"
         d="m 135.96391,319.08659 c 6.59129,6.14357 11.53222,10.55661 31.49734,11.99867 4.87956,0.35246 12.82683,0.50748 11.93406,2.89723 l -71.49082,-1.0743 -2.98825,-43.82879 h 17.80844 c -1.22398,-11.10876 -1.60693,-26.16566 6.93609,-31.98381 0.65293,-0.3938 1.148,-1.19399 1.148,-1.19399 0,0 -54.801968,-0.008 -80.531035,-0.008 l 5.199747,33.19399 h 23.81856 l 3.997593,43.4824 -28.443903,-0.71199 -9.106887,-75.96586 -29.428044,4.2e-4 16.096854,111.76553 143.471265,-0.0237 c 9.22542,-0.0833 18.45004,-0.13864 24.65733,-5.96278 7.21423,-6.76886 9.62132,-22.21912 5.90005,-35.90107 -3.45137,-12.68967 -10.89122,-24.0966 -20.34682,-29.77714 -5.43858,-3.26728 -9.91975,-4.32048 -19.59534,-4.65675 -5.26711,-0.18318 -11.54348,-0.0131 -12.14067,-2.49258 0,0 40.46938,0.7557 46.20107,0.27724 l -4.10753,-33.27157 c -29.83394,-0.33154 -49.00908,-1.87604 -60.41229,2.51405 -10.28664,3.96023 -11.48718,20.16086 -9.91366,32.03364 1.60943,12.14362 3.75184,23.01531 9.83885,28.68883 z"
         sodipodi:nodetypes="sscccccccccccccccsssssccsss" />
    </g>
  </g>
</svg>
